<?xml version="1.0" encoding="UTF-8"?>
<!DOCTYPE svg PUBLIC "-//W3C//DTD SVG 1.1//EN" "http://www.w3.org/Graphics/SVG/1.1/DTD/svg11.dtd">
<!-- Creator: CorelDRAW 2017 -->
<svg xmlns="http://www.w3.org/2000/svg" xml:space="preserve" width="138mm" height="36mm" version="1.1" style="shape-rendering:geometricPrecision; text-rendering:geometricPrecision; image-rendering:optimizeQuality; fill-rule:evenodd; clip-rule:evenodd"
viewBox="0 0 13800 3600"
 xmlns:xlink="http://www.w3.org/1999/xlink">
 <defs>
  <style type="text/css">
   <![CDATA[
    .str1 {stroke:black;stroke-width:25;stroke-miterlimit:22.9256}
    .str0 {stroke:black;stroke-width:10;stroke-miterlimit:22.9256}
    .fil7 {fill:none}
    .fil8 {fill:#204D85}
    .fil11 {fill:#66C7ED}
    .fil10 {fill:#E94A4F}
    .fil9 {fill:#F29CC3}
    .fil12 {fill:#F8C7B9}
    .fil1 {fill:#5B5B5B;fill-rule:nonzero}
    .fil0 {fill:black;fill-rule:nonzero}
    .fil6 {fill:#F8C7B9}
    .fil3 {fill:#F29CC3}
    .fil4 {fill:#E94A4F}
    .fil5 {fill:#66C7ED}
    .fil2 {fill:#204D85}
   ]]>
  </style>
   <clipPath id="id0">
    <path d="M18796 -2582.34l13800 0 0 3600 -13800 0 0 -3600z"/>
   </clipPath>
   <clipPath id="id1">
    <path d="M-0 0l13800 0 0 3600 -13800 0 0 -3600z"/>
   </clipPath>
 </defs>
 <g id="Layer_x0020_1">
  <metadata id="CorelCorpID_0Corel-Layer"/>
  <g>
  </g>
  <g style="clip-path:url(#id0)">
   <g>
    <g id="_2177340265584">
     <g>
      <path class="fil0 str0" d="M22746.56 -1274.13c84.08,-76.33 207.89,-114.17 372.81,-114.17 266.58,0 399.56,109.05 399.56,327.11l0 942.82 -43.03 0 0 -242.43c-82.77,177.02 -237.87,265.51 -465.36,265.51 -142.09,0 -264.62,-46.81 -366.95,-140.46 -102.32,-94.28 -153.19,-210.38 -153.19,-349.55 0,-146.22 49.58,-264.23 148.64,-355.32 99.05,-90.44 222.9,-135.97 371.5,-135.97 221.58,0 376.73,89.81 465.36,268.75l0 -239.26c0,-202.03 -119.26,-302.72 -357.81,-302.72 -156.42,0 -272.44,35.93 -348.73,107.74l-22.8 -32.05zm-213.12 688.83c0,135.97 46.27,245.66 138.82,329.03 89.31,81.45 202.7,122.5 340.87,122.5 142.13,0 256.16,-40.41 342.87,-120.58 86,-80.17 129,-190.5 129,-330.95 0,-135.33 -43.64,-244.35 -132.27,-327.75 -87.99,-83.37 -201.42,-125.06 -339.6,-125.06 -139.49,0 -254.16,41.05 -344.78,123.14 -89.92,82.09 -134.91,191.78 -134.91,329.67zm1974.37 -745.27c-155.79,0 -277,45.52 -364.35,137.25 -59.33,62.85 -89.28,125.69 -89.28,189.86l0 877.4 -43.03 0 0 -1243 43.03 0 0 237.95c76.26,-158.42 227.46,-237.95 453.63,-237.95l0 38.49zm870.9 -16.05c-142.74,27.6 -258.12,98.13 -345.43,212.95 -83.44,109.04 -125.13,237.94 -125.13,386.11 0,149.42 41.69,278.35 125.13,386.12 84.72,112.21 200.1,183.42 345.43,214.86l0 39.77c-155.11,-28.89 -280.91,-104.57 -376.09,-226.43 -91.87,-118.01 -137.5,-255.9 -137.5,-414.32 0,-157.13 46.91,-294.39 141.45,-412.4 93.82,-118.65 218.34,-193.06 372.14,-224.5l0 37.84zm940.64 -45.52c319.36,0 479.02,139.81 479.02,418.8l0 854.97 -37.74 0 -1.99 -847.89c0,-258.5 -146.64,-387.4 -439.29,-387.4 -265.94,0 -417.81,125.06 -455.62,375.84l0 859.45 -43 0 0 -2420.56 43 0 0 1426.42c67.16,-186.62 219.03,-279.63 455.62,-279.63zm2231.8 -1146.79l0 2420.56 -37.8 0 0 -377.76c-34.58,96.21 -91.95,179.58 -172.11,249.47 -118.62,103.28 -268.5,155.21 -450.36,155.21 -193.55,0 -352.61,-60.93 -477.73,-182.78 -124.52,-122.49 -187.09,-278.35 -187.09,-468.85 0,-194.98 61.29,-352.75 183.17,-472.68 122.53,-119.94 282.87,-180.22 481.65,-180.22 306.34,0 514.27,135.97 622.47,407.88l0 -1550.83 37.8 0zm-658.95 1181.43c-181.85,0 -331.09,57.73 -447.79,173.14 -116.66,114.81 -175.31,262.35 -175.31,441.28 0,177.02 59.29,323.27 177.27,439.37 117.97,116.05 266.61,173.78 445.83,173.78 182.5,0 332.41,-57.09 449.71,-171.22 116.66,-114.17 174.67,-261.07 174.67,-441.93 0,-184.06 -57.37,-332.23 -172.04,-445.12 -114.74,-112.89 -265.93,-169.3 -452.34,-169.3zm1335.62 83.37c84.08,-76.33 207.89,-114.17 372.81,-114.17 266.58,0 399.53,109.05 399.53,327.11l0 942.82 -43 0 0 -242.43c-82.77,177.02 -237.91,265.51 -465.4,265.51 -142.05,0 -264.58,-46.81 -366.91,-140.46 -102.33,-94.28 -153.19,-210.38 -153.19,-349.55 0,-146.22 49.55,-264.23 148.64,-355.32 99.05,-90.44 222.9,-135.97 371.46,-135.97 221.62,0 376.73,89.81 465.4,268.75l0 -239.26c0,-202.03 -119.26,-302.72 -357.81,-302.72 -156.42,0 -272.44,35.93 -348.73,107.74l-22.8 -32.05zm-213.16 688.83c0,135.97 46.31,245.66 138.86,329.03 89.31,81.45 202.7,122.5 340.87,122.5 142.1,0 256.16,-40.41 342.84,-120.58 86.03,-80.17 129.03,-190.5 129.03,-330.95 0,-135.33 -43.64,-244.35 -132.27,-327.75 -88.03,-83.37 -201.42,-125.06 -339.6,-125.06 -139.49,0 -254.16,41.05 -344.78,123.14 -89.92,82.09 -134.95,191.78 -134.95,329.67zm1536.43 -1080.71c0,53.21 -10.45,81.45 -31.97,85.29 -20.2,0 -30.66,-28.2 -30.66,-85.29 0,-53.88 10.46,-81.45 30.66,-84.04 21.52,0 31.97,28.24 31.97,84.04zm-54.77 1547.64l0 -1250.69 43 0 0 1250.69 -43 0zm812.21 -689.47l141.45 130.81c43,56.45 64.52,123.17 64.52,199.5 0,209.7 -152.51,341.19 -457.57,393.8l0 -39.13c110.83,-14.12 204.69,-48.76 280.27,-103.28 89.31,-65.41 134.27,-149.42 134.27,-251.39 0,-103.93 -61.89,-205.26 -185.1,-304.03 -78.21,-62.85 -126.44,-103.25 -144.01,-122.49 -46.31,-51.33 -69.78,-105.85 -69.78,-164.86 0,-169.94 99.09,-271.3 297.23,-303.99l0 39.12c-169.47,16.69 -254.19,104.54 -254.19,264.87 0,41.05 9.14,74.41 26.74,99.41 20.84,19.89 72.31,69.29 153.12,148.18l13.05 13.48z"/>
      <path class="fil1" d="M23010.96 333.12l0 504.69 -357.66 -504.69 -38.55 0 0 570.6 38.55 0 0 -504.7 357.66 504.7 38.56 0 0 -570.6 -38.56 0zm738.7 370.5c0,-113.32 -78.75,-214.61 -203.34,-214.61 -118.93,0 -203.3,94.85 -203.3,208.95 0,127.01 89.98,213.8 208.96,213.8 101.26,0 164.74,-63.49 183.2,-119.76l-34.53 -5.62c-18.5,43.4 -66.73,90.02 -147.89,90.02 -97.24,0 -167.95,-65.12 -171.19,-163.96l368.09 0 0 -8.82zm-203.34 -179.22c97.28,0 159.13,74.72 163.97,158.31l-328.72 0c3.24,-87.61 71.53,-158.31 164.75,-158.31zm648.71 -27.36l-77.14 0 0 -120.53 -38.56 0 0 120.53 -52.25 0 0 36.99 52.25 0 0 369.69 38.56 0 0 -369.69 77.14 0 0 -36.99zm864.89 0l-126.98 357.67 -126.15 -357.67 -41.01 0 -126.16 357.67 -126.19 -357.67 -40.98 0 147.07 406.68 40.2 0 126.97 -349.59 126.16 349.59 41.01 0 147.07 -406.68 -41.01 0zm549.08 414.72c118.94,0 212.98,-94.82 212.98,-212.16 0,-115.74 -94.04,-210.59 -212.98,-210.59 -119.75,0 -214.57,94.85 -214.57,210.59 0,117.34 94.82,212.16 214.57,212.16zm0 -36.96c-97.24,0 -176.02,-78.78 -176.02,-175.2 0,-94.86 78.78,-173.6 176.02,-173.6 96.43,0 174.39,78.74 174.39,173.6 0,96.42 -77.96,175.2 -174.39,175.2zm652.7 -385.79c-45,0 -77.15,29.77 -99.66,69.92l-2.42 -61.89 -36.14 0 0 406.68 38.56 0 0 -225.03c0,-65.91 25.71,-152.69 98.06,-152.69 22.51,0 37.77,9.64 44.99,14.47l9.64 -32.97c-8.82,-7.22 -25.72,-18.49 -53.03,-18.49zm652.72 8.03l-54.66 0 -237.09 221.02 0 -417.1 -38.56 0 0 602.76 38.56 0 0 -134.23 74.76 -69.89 167.95 204.12 49.04 0 -188.86 -229.84 188.86 -176.84zm843.3 -163.92l-170.4 0 0 570.6 38.59 0 0 -209.78 131.81 0c110.9,0 196.08,-60.25 196.08,-180 0,-120.54 -85.18,-180.82 -196.08,-180.82zm0 323.87l-131.81 0 0 -286.92 131.81 0c90.8,0 157.53,45.03 157.53,143.87 0,98.84 -66.73,143.05 -157.53,143.05zm827.12 -159.95l-151.88 364.89 -151.9 -364.89 -43.4 0 172.79 406.68 44.21 0 173.57 -406.68 -43.39 0zm480.72 0l-77.14 0 0 -120.53 -38.56 0 0 120.53 -52.25 0 0 36.99 52.25 0 0 369.69 38.56 0 0 -369.69 77.14 0 0 -36.99zm265.37 414.72c16.07,0 28.91,-12.88 28.91,-28.14 0,-16.07 -12.84,-28.91 -28.91,-28.91 -15.3,0 -28.14,12.84 -28.14,28.91 0,15.26 12.84,28.14 28.14,28.14zm742.04 -44.99l0 -533.65 -38.56 0 0 570.6 271.63 0 0 -36.95 -233.07 0zm678.44 -369.73l-77.15 0 0 -120.53 -38.55 0 0 120.53 -52.25 0 0 36.99 52.25 0 0 369.69 38.55 0 0 -369.69 77.15 0 0 -36.99zm285.46 202.56c0,117.34 93.22,212.16 209.74,212.16 82.8,0 152.69,-49.01 181.64,-118.16l1.6 110.12 37.77 0 0 -602.76 -39.37 0 0 305.38c-28.95,-68.29 -98.84,-117.33 -181.64,-117.33 -116.52,0 -209.74,94.85 -209.74,210.59zm38.56 0c0,-94.86 78.78,-173.6 176.02,-173.6 96.42,0 174.38,78.74 174.38,173.6 0,96.42 -77.96,175.2 -174.38,175.2 -97.24,0 -176.02,-78.78 -176.02,-175.2zm673.64 212.16c16.07,0 28.91,-12.88 28.91,-28.14 0,-16.07 -12.84,-28.91 -28.91,-28.91 -15.3,0 -28.14,12.84 -28.14,28.91 0,15.26 12.84,28.14 28.14,28.14z"/>
      <path class="fil1" d="M31990.18 -2481.46l-273.94 0 0 30.8 120.57 0 0 444.74 32.15 0 0 -444.74 121.22 0 0 -30.8zm521.09 0l-199.6 326.87 -199.57 -326.87 -32.15 0 0 475.54 32.15 0 0 -415.93 189.54 310.79 20.09 0 189.54 -310.79 0 415.93 32.83 0 0 -475.54 -32.83 0z"/>
     </g>
     <g>
      <polygon class="fil2" points="18847.9,-1664.31 19627.78,-2114.02 20437.72,-730.12 21187.53,549.32 20407.65,999.03 "/>
      <polygon class="fil3" points="19627.78,-2114.02 20407.66,-2563.72 21967.42,-1664.31 21187.53,-1214.6 "/>
      <polygon class="fil4" points="21187.53,549.32 21187.53,-1214.6 21967.42,-1664.31 21967.42,99.62 "/>
      <polygon class="fil2" points="19216.8,312.15 19474.95,163.28 19216.8,-277.53 "/>
      <polygon class="fil5" points="18847.9,99.62 18847.9,-1664.31 20407.65,999.03 19737.93,612.35 19216.8,-277.53 19216.8,312.16 "/>
      <polygon class="fil6" points="19627.78,-2114.02 21187.53,-1214.6 21187.53,549.32 20668.22,-337.41 20668.22,-927.09 20147.09,-1227.28 "/>
     </g>
    </g>
   </g>
  </g>
  <polygon class="fil7" points="18796,-2582.34 32596,-2582.34 32596,1017.66 18796,1017.66 "/>
  <g>
  </g>
  <g style="clip-path:url(#id1)">
   <g>
    <path class="fil0 str1" d="M4099.62 1389.02c91.31,-82.88 225.76,-123.98 404.85,-123.98 289.49,0 433.9,118.42 433.9,355.22l0 1023.84 -46.73 0 0 -263.26c-89.88,192.23 -258.32,288.33 -505.36,288.33 -154.3,0 -287.36,-50.83 -398.48,-152.53 -111.12,-102.39 -166.35,-228.46 -166.35,-379.59 0,-158.79 53.84,-286.94 161.41,-385.85 107.57,-98.22 242.05,-147.66 403.42,-147.66 240.63,0 409.11,97.52 505.36,291.84l0 -259.82c0,-219.39 -129.51,-328.73 -388.56,-328.73 -169.86,0 -295.85,39.01 -378.7,116.99l-24.76 -34.8zm-231.43 748.03c0,147.66 50.25,266.77 150.74,357.3 96.99,88.45 220.12,133.02 370.17,133.02 154.34,0 278.17,-43.87 372.34,-130.93 93.39,-87.06 140.08,-206.87 140.08,-359.39 0,-146.97 -47.39,-265.35 -143.64,-355.92 -95.55,-90.53 -218.72,-135.8 -368.78,-135.8 -151.48,0 -276,44.57 -374.41,133.71 -97.64,89.15 -146.5,208.26 -146.5,358.01zm2144.04 -809.32c-169.18,0 -300.81,49.43 -395.66,149.04 -64.43,68.25 -96.95,136.5 -96.95,206.18l0 952.81 -46.73 0 0 -1349.82 46.73 0 0 258.39c82.81,-172.03 247,-258.39 492.61,-258.39l0 41.79zm945.74 -17.42c-155,29.97 -280.3,106.56 -375.12,231.24 -90.61,118.42 -135.88,258.39 -135.88,419.3 0,162.25 45.27,302.26 135.88,419.29 92,121.86 217.3,199.19 375.12,233.33l0 43.18c-168.44,-31.36 -305.05,-113.55 -408.41,-245.88 -99.77,-128.15 -149.32,-277.89 -149.32,-449.92 0,-170.64 50.94,-319.69 153.61,-447.85 101.89,-128.84 237.11,-209.65 404.12,-243.79l0 41.1zm1021.48 -49.44c346.8,0 520.18,151.83 520.18,454.79l0 928.44 -40.98 0 -2.16 -920.75c0,-280.72 -159.25,-420.69 -477.04,-420.69 -288.79,0 -453.72,135.8 -494.77,408.14l0 933.3 -46.7 0 0 -2628.58 46.7 0 0 1549.01c72.92,-202.66 237.84,-303.66 494.77,-303.66zm2423.6 -1245.35l0 2628.58 -41.06 0 0 -410.22c-37.54,104.47 -99.84,195.01 -186.9,270.9 -128.81,112.17 -291.57,168.56 -489.06,168.56 -210.19,0 -382.91,-66.17 -518.79,-198.49 -135.22,-133.02 -203.16,-302.27 -203.16,-509.14 0,-211.73 66.55,-383.07 198.91,-513.31 133.06,-130.24 307.18,-195.7 523.04,-195.7 332.67,0 558.46,147.66 675.96,442.93l0 -1684.11 41.06 0zm-715.59 1282.97c-197.48,0 -359.54,62.68 -486.27,188.02 -126.68,124.68 -190.37,284.89 -190.37,479.2 0,192.23 64.38,351.05 192.5,477.12 128.11,126.03 289.52,188.72 484.14,188.72 198.18,0 360.98,-61.99 488.36,-185.94 126.69,-123.98 189.68,-283.5 189.68,-479.9 0,-199.88 -62.3,-360.78 -186.82,-483.37 -124.6,-122.59 -288.79,-183.85 -491.22,-183.85zm1450.4 90.53c91.31,-82.88 225.76,-123.98 404.85,-123.98 289.49,0 433.86,118.42 433.86,355.22l0 1023.84 -46.69 0 0 -263.26c-89.88,192.23 -258.36,288.33 -505.39,288.33 -154.27,0 -287.32,-50.83 -398.44,-152.53 -111.13,-102.39 -166.36,-228.46 -166.36,-379.59 0,-158.79 53.81,-286.94 161.41,-385.85 107.57,-98.22 242.06,-147.66 403.39,-147.66 240.66,0 409.1,97.52 505.39,291.84l0 -259.82c0,-219.39 -129.51,-328.73 -388.56,-328.73 -169.86,0 -295.85,39.01 -378.7,116.99l-24.76 -34.8zm-231.47 748.03c0,147.66 50.29,266.77 150.79,357.3 96.98,88.45 220.11,133.02 370.17,133.02 154.3,0 278.16,-43.87 372.29,-130.93 93.43,-87.06 140.13,-206.87 140.13,-359.39 0,-146.97 -47.4,-265.35 -143.65,-355.92 -95.59,-90.53 -218.72,-135.8 -368.77,-135.8 -151.49,0 -276.01,44.57 -374.42,133.71 -97.64,89.15 -146.54,208.26 -146.54,358.01zm1668.47 -1173.58c0,57.78 -11.36,88.44 -34.73,92.62 -21.94,0 -33.29,-30.63 -33.29,-92.62 0,-58.52 11.35,-88.45 33.29,-91.27 23.37,0 34.73,30.67 34.73,91.27zm-59.49 1680.63l0 -1358.16 46.7 0 0 1358.16 -46.7 0zm882.02 -748.72l153.6 142.06c46.7,61.29 70.07,133.75 70.07,216.64 0,227.72 -165.62,370.51 -496.9,427.64l0 -42.49c120.35,-15.33 222.28,-52.95 304.36,-112.16 96.98,-71.03 145.8,-162.26 145.8,-272.99 0,-112.86 -67.2,-222.9 -201,-330.16 -84.93,-68.25 -137.3,-112.12 -156.38,-133.02 -50.29,-55.73 -75.78,-114.94 -75.78,-179.02 0,-184.54 107.6,-294.62 322.77,-330.12l0 42.49c-184.04,18.11 -276.04,113.51 -276.04,287.63 0,44.57 9.93,80.8 29.05,107.95 22.63,21.59 78.52,75.24 166.27,160.91l14.18 14.64z"/>
    <g id="_1839250082352">
     <polygon class="fil8" points="178.94,921.14 958.82,471.43 1768.77,1855.33 2518.58,3134.77 1738.7,3584.48 "/>
     <polygon class="fil9" points="958.82,471.43 1738.7,21.73 3298.47,921.14 2518.58,1370.85 "/>
     <polygon class="fil10" points="2518.58,3134.77 2518.58,1370.85 3298.46,921.14 3298.46,2685.07 "/>
     <polygon class="fil8" points="547.85,2897.6 806,2748.73 547.85,2307.92 "/>
     <polygon class="fil11" points="178.94,2685.07 178.94,921.14 1738.7,3584.48 1068.98,3197.8 547.85,2307.92 547.85,2897.61 "/>
     <polygon class="fil12" points="958.82,471.43 2518.58,1370.85 2518.58,3134.77 1999.27,2248.04 1999.27,1658.36 1478.14,1358.17 "/>
    </g>
   </g>
  </g>
  <polygon class="fil7" points="-0,0 13800,0 13800,3600 -0,3600 "/>
 </g>
</svg>
